<svg width="70" height="70" viewBox="0 0 70 70" fill="none" xmlns="http://www.w3.org/2000/svg">
<path d="M0 35C0 54.33 15.67 70 35 70V70C54.33 70 70 54.33 70 35V35C70 15.67 54.33 1.44409e-06 35 1.44409e-06V1.44409e-06C15.67 1.44409e-06 0 15.67 0 35V35Z" fill="black"/>
<path d="M56.3549 13.0446C38.728 27.9003 36.8137 27.0434 34.6998 4.07459C32.5855 27.0434 30.6712 27.9003 13.0442 13.0446C27.9005 30.6715 27.0436 32.5859 4.07471 34.6997C27.0436 36.8141 27.9005 38.7279 13.0442 56.3553C30.6712 41.4991 32.5855 42.356 34.6998 65.3248C36.8137 42.356 38.728 41.4991 56.3549 56.3553C41.4992 38.7279 42.3561 36.8141 65.325 34.6997C42.3561 32.5859 41.4992 30.6715 56.3549 13.0446Z" fill="#F8F6E9"/>
</svg>
